<svg width="16" height="16" viewBox="0 0 16 16" fill="none" xmlns="http://www.w3.org/2000/svg">
<path d="M16 8C16 5.87827 15.1571 3.84344 13.6569 2.34315C12.1566 0.842855 10.1217 0 8 0C5.87827 0 3.84344 0.842855 2.34315 2.34315C0.842855 3.84344 0 5.87827 0 8C0 10.1217 0.842855 12.1566 2.34315 13.6569C3.84344 15.1571 5.87827 16 8 16C10.1217 16 12.1566 15.1571 13.6569 13.6569C15.1571 12.1566 16 10.1217 16 8ZM5.21875 7.46875L8.46875 4.21875L9 3.6875L10.0594 4.75L9.52812 5.28125L6.80937 8L9.52812 10.7188L10.0594 11.25L9 12.3094L8.46875 11.7781L5.21875 8.53125L4.6875 8L5.21875 7.46875Z" fill="#4FE0B6"/>
</svg>
