<svg width="121" height="31" viewBox="0 0 121 31" fill="none" xmlns="http://www.w3.org/2000/svg">
<path d="M38 5.99716H42.5511L47.358 17.7244H47.5625L52.3693 5.99716H56.9205V23.4517H53.3409V12.0909H53.196L48.679 23.3665H46.2415L41.7244 12.0483H41.5795V23.4517H38V5.99716Z" fill="white"/>
<path d="M65.8075 23.7074C64.4837 23.7074 63.3388 23.4261 62.3729 22.8636C61.4126 22.2955 60.6712 21.5057 60.1484 20.4943C59.6257 19.4773 59.3643 18.2983 59.3643 16.9574C59.3643 15.6051 59.6257 14.4233 60.1484 13.4119C60.6712 12.3949 61.4126 11.6051 62.3729 11.0426C63.3388 10.4744 64.4837 10.1903 65.8075 10.1903C67.1314 10.1903 68.2734 10.4744 69.2337 11.0426C70.1996 11.6051 70.9439 12.3949 71.4666 13.4119C71.9893 14.4233 72.2507 15.6051 72.2507 16.9574C72.2507 18.2983 71.9893 19.4773 71.4666 20.4943C70.9439 21.5057 70.1996 22.2955 69.2337 22.8636C68.2734 23.4261 67.1314 23.7074 65.8075 23.7074ZM65.8246 20.8949C66.4268 20.8949 66.9297 20.7244 67.3331 20.3835C67.7365 20.0369 68.0405 19.5653 68.245 18.9688C68.4553 18.3722 68.5604 17.6932 68.5604 16.9318C68.5604 16.1705 68.4553 15.4915 68.245 14.8949C68.0405 14.2983 67.7365 13.8267 67.3331 13.4801C66.9297 13.1335 66.4268 12.9602 65.8246 12.9602C65.2166 12.9602 64.7053 13.1335 64.2905 13.4801C63.8814 13.8267 63.5717 14.2983 63.3615 14.8949C63.157 15.4915 63.0547 16.1705 63.0547 16.9318C63.0547 17.6932 63.157 18.3722 63.3615 18.9688C63.5717 19.5653 63.8814 20.0369 64.2905 20.3835C64.7053 20.7244 65.2166 20.8949 65.8246 20.8949Z" fill="white"/>
<path d="M86.3942 10.3608L81.8175 23.4517H77.7266L73.1499 10.3608H76.9851L79.7038 19.7273H79.8402L82.5504 10.3608H86.3942Z" fill="white"/>
<path d="M88.2521 23.4517V10.3608H91.8828V23.4517H88.2521ZM90.076 8.6733C89.5362 8.6733 89.0732 8.49432 88.6868 8.13636C88.3061 7.77273 88.1158 7.33807 88.1158 6.83239C88.1158 6.33239 88.3061 5.90341 88.6868 5.54546C89.0732 5.18182 89.5362 5 90.076 5C90.6158 5 91.076 5.18182 91.4567 5.54546C91.843 5.90341 92.0362 6.33239 92.0362 6.83239C92.0362 7.33807 91.843 7.77273 91.4567 8.13636C91.076 8.49432 90.6158 8.6733 90.076 8.6733Z" fill="white"/>
<path d="M100.757 23.7074C99.4105 23.7074 98.2514 23.4347 97.2798 22.8892C96.3139 22.3381 95.5696 21.5597 95.0469 20.554C94.5241 19.5426 94.2628 18.3466 94.2628 16.9659C94.2628 15.6193 94.5241 14.4375 95.0469 13.4205C95.5696 12.4034 96.3054 11.6108 97.2543 11.0426C98.2088 10.4744 99.3281 10.1903 100.612 10.1903C101.476 10.1903 102.28 10.3295 103.024 10.608C103.774 10.8807 104.428 11.2926 104.984 11.8438C105.547 12.3949 105.984 13.0881 106.297 13.9233C106.609 14.7528 106.766 15.7244 106.766 16.8381V17.8352H95.7117V15.5852H103.348C103.348 15.0625 103.234 14.5994 103.007 14.196C102.78 13.7926 102.464 13.4773 102.061 13.25C101.663 13.017 101.2 12.9006 100.672 12.9006C100.121 12.9006 99.6321 13.0284 99.206 13.2841C98.7855 13.5341 98.456 13.8722 98.2173 14.2983C97.9787 14.7188 97.8565 15.1875 97.8509 15.7045V17.8438C97.8509 18.4915 97.9702 19.0511 98.2088 19.5227C98.4531 19.9943 98.7969 20.358 99.2401 20.6136C99.6832 20.8693 100.209 20.9972 100.817 20.9972C101.22 20.9972 101.589 20.9403 101.925 20.8267C102.26 20.7131 102.547 20.5426 102.786 20.3153C103.024 20.0881 103.206 19.8097 103.331 19.4801L106.689 19.7017C106.518 20.5085 106.169 21.2131 105.641 21.8153C105.118 22.4119 104.442 22.8778 103.612 23.2131C102.788 23.5426 101.837 23.7074 100.757 23.7074Z" fill="white"/>
<path d="M109.067 23.4517V21.2869L115.476 13.3523V13.2585H109.288V10.3608H119.848V12.7216L113.831 20.4602V20.554H120.07V23.4517H109.067Z" fill="white"/>
<circle cx="15.5" cy="15.5" r="15.5" fill="#4F80E2"/>
<path d="M7 9H24V23H7V9ZM8.59375 19V21H10.7188V19H8.59375ZM22.4062 19H20.2812V21H22.4062V19ZM8.59375 15V17H10.7188V15H8.59375ZM22.4062 15H20.2812V17H22.4062V15ZM8.59375 11V13H10.7188V11H8.59375ZM22.4062 11H20.2812V13H22.4062V11ZM12.3125 11V15H18.6875V11H12.3125ZM18.6875 17H12.3125V21H18.6875V17Z" fill="#1A1B1E"/>
</svg>
